<?xml version="1.0"?>
<svg xmlns="http://www.w3.org/2000/svg" xmlns:xlink="http://www.w3.org/1999/xlink" version="1.1" id="Capa_1" x="0px" y="0px" viewBox="0 0 384 384" style="enable-background:new 0 0 384 384;" xml:space="preserve" width="512px" height="512px" class=""><g><g>
	<g>
		<g>
			<polygon points="110.293,243.52 48.96,304.96 0,256 0,384 128,384 79.04,335.04 140.48,273.707    " data-original="#000000" class="active-path" data-old_color="#000000" fill="#FFFFFF"/>
			<polygon points="128,0 0,0 0,128 48.96,79.04 110.293,140.48 140.48,110.293 79.04,48.96    " data-original="#000000" class="active-path" data-old_color="#000000" fill="#FFFFFF"/>
			<polygon points="256,0 304.96,48.96 243.52,110.293 273.707,140.48 335.04,79.04 384,128 384,0    " data-original="#000000" class="active-path" data-old_color="#000000" fill="#FFFFFF"/>
			<polygon points="273.707,243.52 243.52,273.707 304.96,335.04 256,384 384,384 384,256 335.04,304.96    " data-original="#000000" class="active-path" data-old_color="#000000" fill="#FFFFFF"/>
		</g>
	</g>
</g></g> </svg>
